<?xml version="1.0" encoding="UTF-8"?>
<svg width="64" height="64" version="1.1" xmlns="http://www.w3.org/2000/svg">
 <rect x="7" y="24" width="50" height="32" rx="2.5" opacity=".2"/>
 <path d="M7 44.5C7 45.885 8.115 47 9.5 47h45c1.385 0 2.5-1.115 2.5-2.5v-27c0-1.385-1.115-2.5-2.5-2.5H29v-2.5c0-1.385-1.115-2.5-2.5-2.5h-17C8.115 10 7 11.115 7 12.5" fill="#b58f1b"/>
 <rect x="7" y="22" width="50" height="32" rx="2.5" opacity=".2"/>
 <rect x="10" y="18" width="44" height="20" rx="2.5" fill="#e4e4e4"/>
 <rect x="7" y="23" width="50" height="32" rx="2.5" fill="#e2b322"/>
 <path d="M9.5 10C8.115 10 7 11.115 7 12.5v1C7 12.115 8.115 11 9.5 11h17c1.385 0 2.5 1.115 2.5 2.5v-1c0-1.385-1.115-2.5-2.5-2.5zM29 15v1h25.5a2.49 2.49 0 0 1 2.5 2.5v-1a2.49 2.49 0 0 0-2.5-2.5z" fill="#fff" opacity=".1"/>
 <path d="M40.466 38.183c-.622-.622-1.629-.594-2.251.001h-3.258l2.304-2.305c.879 0 1.592-.713 1.592-1.592s-.713-1.592-1.592-1.592-1.593.713-1.593 1.592l-2.305 2.304v-3.258c.595-.622.623-1.629.001-2.251a1.59 1.59 0 0 0-2.25 0c-.621.622-.593 1.63.002 2.251v3.258l-2.305-2.304c0-.879-.713-1.592-1.592-1.592s-1.592.713-1.592 1.592.713 1.593 1.592 1.593l2.304 2.305h-3.258c-.622-.595-1.63-.623-2.251-.001a1.59 1.59 0 0 0 0 2.249c.622.622 1.63.593 2.251-.002h3.258l-2.304 2.305c-.879 0-1.592.713-1.592 1.593s.713 1.592 1.592 1.592 1.593-.713 1.593-1.592l2.305-2.304v3.258c-.595.622-.623 1.629-.001 2.251a1.59 1.59 0 0 0 2.25 0c.622-.622.593-1.63-.002-2.251v-3.258l2.305 2.304c0 .879.713 1.592 1.592 1.592s1.592-.713 1.592-1.592-.713-1.593-1.592-1.593l-2.304-2.305h3.258c.622.595 1.63.623 2.251.002a1.59 1.59 0 0 0 0-2.249z" fill="#e2b322"/>
 <path d="m26.534 28c-3.1592 0-5.72 2.5609-5.72 5.72v11.166c0 3.1591 2.5608 5.72 5.72 5.72h11.165c3.1592 0 5.7205-2.5609 5.7205-5.72v-11.166c0-3.1592-2.5614-5.72-5.7205-5.72zm11.458 5.0633h0.0048c0.14533 4.42e-4 0.28888 0.02923 0.42317 0.08474 0.13574 0.05609 0.25927 0.13831 0.36314 0.2421 0.10387 0.10378 0.18637 0.22748 0.2426 0.36314 0.05623 0.13563 0.08474 0.28082 0.08474 0.4277 0 0.14682-0.02853 0.29207-0.08474 0.4277-0.05623 0.13564-0.13873 0.25888-0.2426 0.36264-0.10388 0.10376-0.2274 0.18604-0.36314 0.2421-0.1357 0.05612-0.28082 0.08491-0.4277 0.08474-2.3633 0-3.2804 1.4386-4.509 3.8065l-0.75756 1.4269c-1.1587 2.2326-2.596 5.0109-6.4927 5.0109-0.14685 1.7e-4 -0.292-0.02861-0.4277-0.08474-0.13571-0.05606-0.25926-0.13828-0.36315-0.2421-0.10388-0.10376-0.18637-0.22695-0.2426-0.36264-0.05623-0.13563-0.08474-0.28133-0.08474-0.42821 0-0.14682 0.02853-0.29207 0.08474-0.4277 0.05622-0.13564 0.13872-0.25888 0.2426-0.36264 0.10389-0.10376 0.22744-0.18604 0.36315-0.2421 0.13571-0.05612 0.28086-0.08491 0.4277-0.08474 2.3633 0 3.2804-1.4386 4.509-3.8065l0.7621-1.4269c1.1583-2.2317 2.595-5.0087 6.4882-5.0109z" fill="#4f3e0c" stroke-width=".056514"/>
</svg>
