<?xml version="1.0" encoding="UTF-8"?>
<svg width="100" height="100" version="1.1" xmlns="http://www.w3.org/2000/svg">
 <path d="M87.77 23.809v71.504c0 2.598-2.09 4.688-4.687 4.688H17.457c-2.598 0-4.687-2.09-4.687-4.687V4.688C12.77 2.09 14.86 0 17.457 0h46.485z" fill="#b3b3b3"/>
 <path d="M63.942 23.809L87.77 47.637V23.809z" opacity=".4"/>
 <path d="M86.403 20.508L67.262 1.367C66.383.488 65.192 0 63.942 0v23.809H87.77c0-1.23-.488-2.422-1.367-3.301z" fill="#e6e6e6"/>
 <g transform="matrix(.1253 0 0 .12368 27.182 42.724)" fill="none">
  <g clip-path="url(#a)">
   <path d="m298.78 0h-197.57c-55.901 0-101.22 45.317-101.22 101.22v197.57c0 55.9 45.316 101.22 101.22 101.22h197.57c55.9 0 101.22-45.317 101.22-101.22v-197.57c0-55.9-45.317-101.22-101.22-101.22z" fill="#00ddb3"/>
   <path d="m304.04 89.598c-68.951 0-94.382 49.158-114.88 88.663l-13.486 25.248c-21.74 41.899-37.964 67.35-79.781 67.35-2.5983-3e-3 -5.1716 0.506-7.5729 1.499-2.4013 0.992-4.5835 2.449-6.4217 4.285-1.8383 1.836-3.2965 4.017-4.2914 6.417-0.995 2.4-1.507 4.973-1.507 7.571 0 2.599 0.512 5.172 1.507 7.572 0.9949 2.401 2.4531 4.581 4.2914 6.417 1.8382 1.837 4.0204 3.293 6.4217 4.285 2.4013 0.993 4.9746 1.502 7.5729 1.499 68.951 0 94.382-49.158 114.88-88.663l13.405-25.248c21.74-41.899 37.964-67.35 79.781-67.35 2.599 3e-3 5.172-0.506 7.573-1.499 2.402-0.992 4.584-2.449 6.422-4.285s3.296-4.017 4.291-6.417 1.507-4.973 1.507-7.571c0-2.599-0.512-5.172-1.507-7.572-0.995-2.4005-2.453-4.5811-4.291-6.4174-1.838-1.8364-4.02-3.2922-6.422-4.2847-2.401-0.9925-4.974-1.5019-7.573-1.4992z" fill="#fff"/>
  </g>
 </g>
 <path d="m30.115 8.758-6.859 76.489-10.158 11.586 7.18-12.687 7.027-79.097c0.756 0.362 2.979 1.672 2.81 3.71z" opacity=".4"/>
 <g transform="matrix(.060535 -.050795 .050795 .060535 37.661 29.863)">
  <path d="m-718.98 276.54 610.06-610.06 110.37 108.82-609.24 609.25c-111.19 42.832-101.44 5.504-68.658-83.839-25.462 9.266-56.817 13.497-42.536-24.174z" fill="#fde061"/>
  <path d="m-763.68 397.59 44.684-120.99c-1.657 13.479-2.446 20.206-0.331 21.593 5.138 3.37 33.879-2.455 42.896 2.512 4.273 12.189-11.973 42.504-5.24 49.225 6.311 6.298 52.395-5.271 58.6-1.353 0.745 36.525-15.633 38.854 8.027 38.672l-117.15 43.776c-10.08-9.097-25.571-15.664-15.174-34.334z" fill="#fcb180"/>
  <path d="m-623.08 348.58c-55.782 18.405-78.519 8.198-53.357-47.868l601.11-601.11 50.974 50.251z" fill="#fdce24"/>
  <path d="m-623.08 348.58 598.73-598.73 25.814 25.469-609.24 609.24-22.619 8.405z" fill="#f4b729"/>
  <path d="m-727.27 416.03 104.2-67.448c1.828 6.341-5.376 33.067-4.644 36.381 0.357 1.618 5.052 2.035 12.671 2.292l-119.57 44.927z" fill="#df8040"/>
  <path d="m-676.44 300.71c3.464 6.731-6.175 25.521-7.071 42.295-0.434 8.124 3.69 8.584 11.805 8.483 24.037-0.876 42.898-6.382 48.626-2.906l-104.2 67.448c-23.115-2.147-21.762 5.937-20.107-19.333z" fill="#f3975a"/>
  <path d="m-782.9 448.65 19.411-51.731c0.396-1.055 4.025-1.309 8.734-1.309 8.875 0 9.314 0.576 7.711 10.134-0.606 3.615-0.877 7.179-0.602 7.92 0.352 0.947 3.511 1.347 10.625 1.347 9.076 0 10.124 0.203 10.124 1.964 0 2.768-2.786 13.421-4.728 14.138l-50.1 18.525c-1.24 0.459-1.488-0.16-1.177-0.988z" fill="#0f0d0b"/>
  <path d="m-49.377-393.06 47.509-47.509c18.819-22.203 131.38 87.037 109.6 109.6l-47.508 47.508a1113.8 1113.8 0 0 1-109.6-109.6z" fill="#ec9190"/>
  <path d="m-17.664-358.06 63.904-63.904c12.902 9.508 38.58 34.333 50.759 52.774l-62.53 62.562c-18.736-17.49-33.461-31.859-52.133-51.432z" fill="#e86c6a"/>
  <path d="m34.48-306.64 62.538-62.538c3.42 5.268 18.844 26.616 11.53 37.393l-48.323 48.316c-8.826-7.679-17.496-15.67-25.745-23.171z" fill="#d6514f"/>
  <path d="m-108.93-333.51 59.549-59.549c33.136 36.997 70.994 73.559 109.6 109.6l-59.549 59.549c-38.49-34.283-77.593-72.389-109.6-109.6z" fill="#dbdbdb"/>
 </g>
</svg>
