<svg fill="none" height="400" viewBox="0 0 400 400" width="400" xmlns="http://www.w3.org/2000/svg" xmlns:xlink="http://www.w3.org/1999/xlink">
  <clipPath id="a">
    <path d="m0 0h400v400h-400z"/>
  </clipPath>
  <g clip-path="url(#a)">
    <path d="m298.783 0h-197.566c-55.9008 0-101.217 45.3166-101.217 101.217v197.566c0 55.9 45.3162 101.217 101.217 101.217h197.566c55.9 0 101.217-45.317 101.217-101.217v-197.566c0-55.9004-45.317-101.217-101.217-101.217z" fill="gray"/>
    <path d="m304.035 89.5977c-68.951 0-94.382 49.1583-114.885 88.6633l-13.486 25.248c-21.74 41.899-37.964 67.35-79.781 67.35-2.5983-.003-5.1716.506-7.5729 1.499-2.4013.992-4.5835 2.449-6.4217 4.285-1.8383 1.836-3.2965 4.017-4.2914 6.417-.995 2.4-1.507 4.973-1.507 7.571 0 2.599.512 5.172 1.507 7.572.9949 2.401 2.4531 4.581 4.2914 6.417 1.8382 1.837 4.0204 3.293 6.4217 4.285 2.4013.993 4.9746 1.502 7.5729 1.499 68.951 0 94.382-49.158 114.885-88.663l13.405-25.248c21.74-41.899 37.964-67.35 79.781-67.35 2.599.003 5.172-.506 7.573-1.499 2.402-.992 4.584-2.449 6.422-4.285s3.296-4.017 4.291-6.417 1.507-4.973 1.507-7.571c0-2.599-.512-5.172-1.507-7.572-.995-2.4005-2.453-4.5811-4.291-6.4174-1.838-1.8364-4.02-3.2922-6.422-4.2847-2.401-.9925-4.974-1.5019-7.573-1.4992z" fill="#fff"/>
  </g>
</svg>
